<svg viewBox="0 0 1024 1024" xmlns="http://www.w3.org/2000/svg">
  <path d="M354.9 511.8c0 2.8 0.7 5.3 0.8 8.1l165.6-165.6c-2.7-0.1-5.3-0.8-8.1-0.8-87.3 0-158.3 71.1-158.3 158.3zM513.2 670.2c87.3 0 158.3-71 158.3-158.3 0-2.8-0.7-5.3-0.8-8.1L505.2 669.3c2.7 0.2 5.3 0.9 8 0.9zM378.6 696.3l50.8-50.8L647 427.9l50.8-50.8L797.9 277l66-66c6.3-6.3 6.3-16.5 0-22.7l-27.1-27.1c-6.3-6.3-16.5-6.3-22.7 0L160.6 814.7c-6.3 6.3-6.3 16.5 0 22.7l27.1 27.1c6.3 6.3 16.5 6.3 22.7 0l78.5-78.5 89.7-89.7z"/>
  <path d="M850.4 324.1l-119 119c11.1 35 14 73.6 6.2 113.6-17.4 89.8-89.9 162.3-179.8 179.5-39.9 7.7-78.4 4.7-113.3-6.3l-86.9 86.9c48.7 17.2 101 26.7 155.6 26.7 209 0 385.8-137.3 445.6-326.5 1.1-3.4 1.1-7.1 0-10.5-21.8-69.1-59.4-131.3-108.4-182.4zM295.1 580.6c-11.1-35-14-73.6-6.2-113.6 17.4-89.9 89.9-162.3 179.8-179.6 39.9-7.7 78.4-4.7 113.3 6.3l86.9-86.9c-48.7-17.2-101-26.7-155.6-26.7-209 0-385.8 137.3-445.6 326.5-1.1 3.4-1.1 7.1 0 10.5 21.8 69.2 59.4 131.4 108.4 182.5l119-119z"/>
</svg>
