<?xml version="1.0" encoding="UTF-8" standalone="no"?>
<!-- Created with Inkscape (http://www.inkscape.org/) -->

<svg
   width="1023.9999"
   height="1023.9999"
   viewBox="0 0 270.93331 270.93331"
   version="1.1"
   id="svg1"
   xml:space="preserve"
   xmlns="http://www.w3.org/2000/svg"
   xmlns:svg="http://www.w3.org/2000/svg"><defs
     id="defs1" /><g
     id="layer1"><path
       style="fill:#1c1d23;fill-opacity:1;stroke-width:1.09089"
       d="m 87.723573,209.15038 c -11.563231,-2.0113 -19.265929,-5.48337 -24.758605,-11.16015 -2.542777,-2.628 -4.002754,-4.72059 -5.823195,-8.34643 -1.409971,-2.80827 -3.205158,-8.27361 -3.535437,-10.76341 l -0.197997,-1.49256 -2.196943,0.23735 c -8.787973,0.94945 -20.478828,-1.16334 -22.805696,-4.12149 -1.129927,-1.43645 -0.873665,-2.11631 2.971367,-7.88292 7.170156,-10.75352 11.992739,-20.59605 16.889732,-34.47063 l 1.621059,-4.59293 -1.64496,-4.8599 C 43.607316,108.00185 41.186403,89.798404 42.21252,76.353454 43.303022,62.064827 46.075912,59.627667 58.738101,61.828718 c 9.421325,1.637696 19.889026,5.090488 31.869306,10.512161 2.841025,1.285706 6.724121,3.184788 8.629093,4.220183 l 3.46359,1.882538 3.12659,-1.035019 c 3.66381,-1.212861 10.61352,-2.810232 14.91295,-3.427703 14.60864,-2.098054 31.36366,-0.832101 43.91117,3.31778 l 3.42451,1.132592 2.55514,-1.452776 c 6.05041,-3.440086 18.63121,-8.82273 26.59679,-11.379331 8.89219,-2.854 14.84045,-4.176783 19.77133,-4.396779 3.08028,-0.137428 3.64592,-0.08537 5.11102,0.47033 4.90875,1.86186 6.61013,7.608191 6.60825,22.318964 -0.001,9.185465 -0.58713,14.890991 -2.5044,24.386052 -1.13126,5.60248 -2.84933,11.83217 -4.34151,15.74237 l -1.00039,2.62146 1.63238,4.49033 c 4.89867,13.47525 10.16255,24.1429 16.8096,34.06593 1.64486,2.45552 3.17417,4.81946 3.39847,5.25321 0.6827,1.32021 0.51023,2.24003 -0.61986,3.30584 -1.31354,1.23883 -6.10033,2.7742 -10.80626,3.46612 -3.44141,0.50599 -10.62817,0.68648 -12.43647,0.31231 l -1.03547,-0.21425 -0.35239,1.66392 c -2.63384,12.4366 -8.88526,20.80109 -19.13174,25.59854 -5.41608,2.53584 -9.32191,3.60323 -18.07211,4.93875 l -1.23909,0.18912 0.20397,-0.82121 c 0.11218,-0.45166 0.88769,-2.86687 1.72333,-5.36715 0.83564,-2.50028 1.4821,-4.54597 1.43656,-4.54597 -0.0455,0 -1.10446,0.47203 -2.35312,1.04895 -3.05541,1.41169 -9.89813,3.63563 -14.00532,4.55188 -8.80349,1.9639 -15.9142,2.733 -27.38918,2.96246 -19.1425,0.38278 -36.34112,-2.33623 -47.795617,-7.55622 -2.4348,-1.10957 -2.544882,-1.14359 -2.272028,-0.70209 0.276095,0.44672 2.910201,8.33708 3.15022,9.43637 0.243888,1.11696 0.430008,1.10149 -3.993842,0.332 z"
       id="path327" /><path
       style="fill:#ffffff;fill-opacity:1;stroke-width:1.09089"
       d="m 216.27372,111.47706 c 2.16709,-8.185 3.41469,-17.040873 3.65958,-25.976929 0.2698,-9.844872 -0.45186,-15.20611 -2.10259,-15.620417 -1.30646,-0.327903 -10.3348,1.465092 -16.27398,3.231953 -3.5056,1.042886 -8.54198,2.850063 -12.55552,4.505226 -3.8578,1.590936 -14.01122,6.558689 -13.97625,6.838142 0.0123,0.09857 1.33037,0.828622 2.92895,1.622361 11.08733,5.505133 23.22385,16.536604 31.02012,28.195704 1.10798,1.65692 2.5225,3.94784 3.1434,5.09094 l 1.12891,2.07834 1.09338,-3.39518 c 0.60137,-1.86734 1.47166,-4.82391 1.934,-6.57014 z"
       id="path326" /><path
       style="fill:#ff82aa;fill-opacity:1;stroke-width:1.09089"
       d="m 206.34646,110.57601 c -0.0801,-0.004 -0.49205,-0.79404 -2.93675,-3.64324 -4.16395,-4.85293 -10.57582,-11.064537 -15.42623,-14.584494 l -2.09306,-1.518941 1.19851,-0.829637 c 1.24333,-0.860658 0.84138,-0.559247 1.82242,-1.169077 1.23432,-0.767274 10.94168,-5.739682 14.08854,-6.773067 3.38595,-1.111896 7.72461,-2.062072 8.02782,-1.75811 0.44334,0.444427 -0.93601,13.663312 -1.4235,17.028853 -0.44523,3.073793 -2.93916,13.264113 -3.25775,13.247713 z"
       id="path325" /><path
       style="fill:#fef9fa;fill-opacity:1;stroke-width:1.09089"
       d="m 58.695653,119.91957 c 6.778875,-13.05911 19.882177,-26.155368 33.715988,-33.697858 1.60139,-0.873114 2.8746,-1.709788 2.829367,-1.859279 -0.113684,-0.375708 -8.308235,-4.493142 -12.153726,-6.106763 -4.46993,-1.875643 -9.551403,-3.715972 -13.443378,-4.868714 -7.103228,-2.103865 -14.674975,-3.760797 -16.305001,-3.568034 -1.940756,0.229508 -2.527756,3.187457 -2.539101,12.794883 -0.01451,12.316326 1.956095,24.257155 6.037545,36.583695 0.459846,1.38878 0.855381,2.52528 0.878978,2.52554 0.02356,2.7e-4 0.464296,-0.8113 0.979328,-1.80347 z"
       id="path221" /><path
       style="fill:#ff83a9;fill-opacity:1;stroke-width:1.09089"
       d="m 64.406056,110.85836 c -0.553934,0.0837 -3.618655,-11.007297 -4.310894,-16.410624 -0.395351,-3.086014 -0.540745,-13.811113 -0.191943,-14.1599 0.534615,-0.534605 8.411474,1.801709 12.983664,3.851019 3.173511,1.422405 8.359348,4.488406 9.349148,5.166227 1.075856,0.736752 2.514717,1.730572 2.27522,1.89637 -0.996557,0.689893 -5.532156,4.230016 -6.342091,4.945129 -1.465311,1.277741 -4.557265,4.209829 -5.736085,5.404989 -1.178822,1.19517 -4.724948,5.37908 -5.831366,6.70677 -1.946614,2.44653 -2.195653,2.60002 -2.195653,2.60002 z"
       id="path220" /><path
       style="fill:#fef1e7;fill-opacity:1;stroke-width:1.09089"
       d="m 151.91193,197.50749 c 14.80544,-1.81493 24.87726,-5.03776 29.6258,-9.47979 2.21372,-2.07082 3.35776,-3.82286 4.30099,-6.58665 0.7604,-2.22811 1.86349,-8.25269 1.86359,-10.1781 l 6e-5,-1.11556 -0.79374,0.52885 c -2.24879,1.49831 -5.36694,3.2624 -5.55792,3.14437 -0.11936,-0.0737 -1.09351,-2.18186 -2.16478,-4.68464 -5.98071,-13.97257 -12.83574,-28.3793 -13.20125,-27.74414 -5.49688,9.55206 -12.12144,16.82929 -19.98971,21.95909 -3.07859,2.00711 -6.20342,3.56217 -6.45935,3.2145 -1.00147,-1.36044 -2.62341,-4.0268 -3.18703,-5.23924 -0.38431,-0.82675 -0.77397,-1.50002 -0.8659,-1.49617 -0.0919,0.004 -0.52046,0.75068 -0.9523,1.65963 -1.11835,2.3539 -2.88234,5.26055 -3.19253,5.26055 -0.50726,0 -4.88114,-2.40539 -7.21763,-3.96929 -6.48844,-4.34296 -12.97378,-11.3599 -17.67409,-19.12283 -0.91262,-1.50728 -1.70251,-2.79043 -1.75533,-2.85147 -0.29153,-0.3369 -12.368533,26.09033 -14.860403,32.51795 l -0.254865,0.65738 -1.230803,-0.6232 c -0.676943,-0.34277 -2.126306,-1.20014 -3.2208,-1.90525 l -1.99,-1.28205 0.202852,2.23857 c 0.627047,6.91969 2.366086,11.92444 5.25436,15.12142 5.077318,5.61998 22.065919,10.07971 40.518809,10.63672 7.90944,0.23873 17.80363,-0.0479 22.80197,-0.66065 z"
       id="path106" /><path
       style="fill:#1c1d23;fill-opacity:1;stroke-width:1.09089"
       d="m 160.71522,179.64346 c -3.67916,-1.78892 -5.72538,-6.13173 -5.01404,-10.6416 0.37065,-2.34987 1.19052,-4.06631 2.72676,-5.70868 4.10403,-4.38754 11.24154,-3.01817 13.86379,2.65987 0.74501,1.61317 0.83449,2.11747 0.83279,4.69368 -0.002,3.38946 -0.4994,4.776 -2.48493,6.93005 -1.81176,1.96553 -3.09726,2.53304 -6.02783,2.66115 -2.14124,0.0936 -2.63699,0.018 -3.89654,-0.59447 z"
       id="path105" /><path
       style="fill:#1c1d23;fill-opacity:1;stroke-width:1.09089"
       d="m 102.6253,179.57492 c -1.78805,-0.89102 -3.0707,-2.28684 -4.081197,-4.44121 -0.659302,-1.40565 -0.750769,-1.96986 -0.750769,-4.6313 0,-2.65981 0.09152,-3.22488 0.747614,-4.61812 1.010082,-2.14483 1.945522,-3.18535 3.774472,-4.19846 1.36624,-0.75679 1.8149,-0.8526 3.99258,-0.8526 2.18029,0 2.62554,0.0954 4.00009,0.85669 3.22267,1.78499 4.75611,4.66041 4.77655,8.95681 0.0109,2.26095 -0.0947,2.83145 -0.81332,4.40092 -0.95228,2.07966 -2.73417,3.87234 -4.67672,4.70501 -1.99343,0.85448 -5.05457,0.77641 -6.9693,-0.17774 z"
       id="path104" /><path
       style="fill:#ff84ac;fill-opacity:1;stroke-width:1.09089"
       d="m 80.366667,197.01758 c -3.230302,-9.55648 -4.456501,-24.06673 -3.47008,-41.06316 0.370107,-6.37731 0.595366,-7.42486 1.095312,-5.09372 1.177523,5.49063 3.86384,11.01336 7.154283,14.70835 l 1.13296,1.27225 0.529782,-1.41657 c 1.92857,-5.15662 9.444514,-21.98074 14.295036,-31.9988 l 2.92854,-6.04848 1.59863,3.01784 c 6.80344,12.84338 15.16276,23.74728 21.57445,28.14169 l 2.33733,1.60196 0.68667,-1.52897 c 1.01269,-2.25491 3.32015,-8.69251 4.06556,-11.34247 0.89997,-3.19947 0.93949,-3.29351 1.09177,-2.59769 0.62699,2.86525 5.301,15.44183 5.73886,15.44183 0.26218,0 1.76744,-1.038 4.0033,-2.76064 6.44219,-4.9634 13.36225,-14.27946 19.76447,-26.60771 0.84501,-1.62717 1.62557,-2.95849 1.73459,-2.95849 0.29966,0 7.96313,15.80576 10.84569,22.36903 1.39444,3.17495 3.53409,8.21702 4.75478,11.20459 l 2.21944,5.43193 1.06947,-1.24676 c 3.25981,-3.80025 6.57945,-10.64207 7.27549,-14.99487 0.33076,-2.0685 0.60221,-0.85207 0.92465,4.14362 1.26409,19.58571 -0.0737,34.95708 -3.82351,43.93156 l -0.4205,1.00642 1.43768,-0.56669 c 4.37864,-1.7259 7.92347,-4.27699 11.05663,-7.95707 4.50207,-5.28795 6.99828,-11.63849 8.09549,-20.59553 0.81137,-4.43326 -1.26627,-5.4517 2.49353,-3.78913 4.74197,2.20578 7.69129,2.90547 12.23468,2.90255 2.8211,-0.002 3.73921,-0.10516 6.46332,-0.72771 l 0.69068,-0.15783 -0.86316,-0.92221 c -5.91339,-6.31783 -12.08386,-17.52033 -18.27128,-33.17147 -8.07856,-20.43481 -21.42042,-35.590245 -38.81825,-44.094838 -12.76778,-6.241287 -24.65903,-8.627675 -41.2751,-8.283263 -14.34245,0.297287 -25.11452,2.856209 -36.895466,8.764579 -16.984604,8.518105 -29.992977,23.736362 -38.200857,44.690482 -5.180462,13.22534 -11.143608,24.20499 -16.813369,30.95763 l -1.736268,2.06788 1.074738,0.33576 c 0.591102,0.18468 2.958059,0.39348 5.259902,0.46404 3.773404,0.11566 4.460799,0.0572 6.986579,-0.59307 1.54078,-0.39676 3.93165,-1.251 5.31305,-1.89835 1.381399,-0.64735 2.559915,-1.12872 2.61891,-1.06972 0.05902,0.0591 0.236725,1.26161 0.394947,2.67245 0.988864,8.81755 2.863239,14.61441 6.48586,20.05871 3.038469,4.56642 7.074681,7.93874 12.094814,10.10545 0.963576,0.41587 1.783743,0.73044 1.82259,0.69905 0.03883,-0.0315 -0.301633,-1.1584 -0.756623,-2.50444 z"
       id="path103" /></g></svg>
